<svg xmlns="http://www.w3.org/2000/svg" version="1.1" xlink="http://www.w3.org/1999/xlink" xmlns:svgjs="http://svgjs.com/svgjs" width="100%" height="100%" preserveAspectRatio="xMidYMid meet" viewBox="0 0 247.616455078125 147" overflow="visible"><defs id="SvgjsDefs58000"><linearGradient id="SvgjsLinearGradient9xaisKiKrp" gradientUnits="userSpaceOnUse" x1="70.79581973605131" y1="327.2184659782344" x2="468.81010545033695" y2="-70.79581973605131"><stop id="SvgjsStop58003" stop-color="#9013fe" offset="0"></stop><stop id="SvgjsStop58004" stop-color="#ff5e94" offset="1"></stop></linearGradient><linearGradient id="SvgjsLinearGradientnGGHtzc61KS" gradientUnits="userSpaceOnUse" x1="3.689343624099407" y1="97.56412392122836" x2="96.3124266859082" y2="4.9410408594195365"><stop id="SvgjsStop58009" stop-color="#9013fe" offset="0"></stop><stop id="SvgjsStop58010" stop-color="#ff5e94" offset="1"></stop></linearGradient></defs><g id="SvgjsG58001" transform="scale(0.4588838395951372)" opacity="1"><g id="SvgjsG58005" class="JxXs_uJb8" transform="translate(0, 0) scale(1)" light-content="false" fill="url(#SvgjsLinearGradient9xaisKiKrp)"><path d="M0 0 h 161.88177755591647 v 8 h -161.88177755591647 ZM377.72414763047175 0 h 161.8817775559165 v 8 h -161.8817775559165 Z M0 0 h 8 v 76.92679387265493 h -8 ZM0 179.49585236952814 h 8 v 76.92679387265494 h -8 Z M539.6059251863883 256.4226462421831 h -161.8817775559165 v -8 h 161.8817775559165 ZM161.88177755591647 256.4226462421831 h -161.88177755591647 v -8 h 161.88177755591647 Z M539.6059251863883 256.4226462421831 h -8 v -76.92679387265494 h 8 ZM539.6059251863883 76.92679387265493 h -8 v -76.92679387265493 h 8 Z" fill-rule="nonzero"></path></g><g id="SvgjsG58006" class="text" transform="translate(269.92306804353103, 134.77095962154166) scale(1)" light-content="false" fill="#ffffff"><path d="M-187.76 -43.85C-187.76 -43.93 -187.64 -44.01 -187.4 -44.09C-183.28 -45.78 -180.11 -48.25 -177.89 -51.48C-175.67 -54.71 -174.56 -58.58 -174.56 -63.1C-174.56 -69.73 -176.7 -74.99 -180.98 -78.91C-185.26 -82.83 -190.99 -84.79 -198.18 -84.79L-225.55 -84.79C-226.36 -84.79 -226.76 -84.38 -226.76 -83.57L-226.76 -1.21C-226.76 -0.4 -226.36 0 -225.55 0L-197.33 0C-190.22 0 -184.49 -2.04 -180.13 -6.12C-175.77 -10.19 -173.59 -15.71 -173.59 -22.65C-173.59 -27.74 -174.8 -32.08 -177.22 -35.67C-179.64 -39.26 -183.04 -41.91 -187.4 -43.6C-187.64 -43.68 -187.76 -43.76 -187.76 -43.85ZM-222.04 -80.06C-222.04 -80.38 -221.88 -80.55 -221.55 -80.55L-198.18 -80.55C-192.44 -80.55 -187.84 -78.93 -184.37 -75.7C-180.9 -72.47 -179.16 -68.19 -179.16 -62.86C-179.16 -57.78 -180.9 -53.68 -184.37 -50.57C-187.84 -47.46 -192.44 -45.91 -198.18 -45.91L-221.55 -45.91C-221.88 -45.91 -222.04 -46.07 -222.04 -46.39ZM-183.58 -9.51C-187.09 -6.08 -191.68 -4.36 -197.33 -4.36L-221.55 -4.36C-221.88 -4.36 -222.04 -4.52 -222.04 -4.84L-222.04 -41.18C-222.04 -41.5 -221.88 -41.67 -221.55 -41.67L-198.05 -41.67C-192.08 -41.67 -187.3 -39.97 -183.7 -36.58C-180.11 -33.19 -178.31 -28.63 -178.31 -22.89C-178.31 -17.4 -180.07 -12.94 -183.58 -9.51Z M-133.67 -2.3C-129.51 -0.12 -124.73 0.97 -119.32 0.97C-113.83 0.97 -109 -0.12 -104.84 -2.3C-100.68 -4.48 -97.45 -7.57 -95.15 -11.57C-92.85 -15.56 -91.7 -20.15 -91.7 -25.31L-91.7 -83.57C-91.7 -84.38 -92.11 -84.79 -92.91 -84.79L-95.21 -84.79C-96.02 -84.79 -96.43 -84.38 -96.43 -83.57L-96.43 -24.95C-96.43 -18.49 -98.52 -13.26 -102.72 -9.27C-106.92 -5.27 -112.45 -3.27 -119.32 -3.27C-126.18 -3.27 -131.69 -5.27 -135.85 -9.27C-140.01 -13.26 -142.09 -18.49 -142.09 -24.95L-142.09 -83.57C-142.09 -84.38 -142.49 -84.79 -143.3 -84.79L-145.6 -84.79C-146.41 -84.79 -146.81 -84.38 -146.81 -83.57L-146.81 -25.31C-146.81 -20.15 -145.66 -15.56 -143.36 -11.57C-141.06 -7.57 -137.83 -4.48 -133.67 -2.3Z M-59.54 -4.84C-54.49 -0.97 -47.65 0.97 -39.01 0.97C-30.37 0.97 -23.68 -0.97 -18.96 -4.84C-14.24 -8.72 -11.87 -13.89 -11.87 -20.35C-11.87 -24.39 -12.88 -27.88 -14.9 -30.83C-16.92 -33.77 -19.79 -36.4 -23.5 -38.7C-27.22 -41 -32.1 -43.4 -38.16 -45.91C-44.29 -48.41 -48.84 -50.45 -51.78 -52.02C-54.73 -53.6 -56.99 -55.43 -58.57 -57.53C-60.14 -59.63 -60.93 -62.38 -60.93 -65.77C-60.93 -70.86 -59.17 -74.75 -55.66 -77.46C-52.15 -80.16 -47.12 -81.52 -40.58 -81.52C-33.23 -81.52 -27.54 -79.9 -23.5 -76.67C-19.46 -73.44 -17.45 -69.12 -17.45 -63.71L-17.45 -61.17C-17.45 -60.36 -17.04 -59.96 -16.23 -59.96L-13.93 -59.96C-13.13 -59.96 -12.72 -60.36 -12.72 -61.17L-12.72 -64.07C-12.72 -70.69 -15.14 -75.96 -19.99 -79.88C-24.83 -83.8 -31.62 -85.75 -40.34 -85.75C-48.33 -85.75 -54.53 -84.02 -58.93 -80.55C-63.33 -77.07 -65.53 -72.07 -65.53 -65.53C-65.53 -61.41 -64.6 -58.02 -62.75 -55.35C-60.89 -52.69 -58.36 -50.47 -55.18 -48.69C-51.99 -46.91 -47.24 -44.69 -40.94 -42.03C-34.73 -39.36 -29.92 -37 -26.53 -34.94C-23.14 -32.88 -20.64 -30.68 -19.02 -28.34C-17.41 -26 -16.6 -23.22 -16.6 -19.99C-16.6 -14.82 -18.5 -10.74 -22.29 -7.75C-26.09 -4.76 -31.54 -3.27 -38.64 -3.27C-45.99 -3.27 -51.82 -4.89 -56.14 -8.12C-60.46 -11.35 -62.62 -15.58 -62.62 -20.83L-62.62 -24.71C-62.62 -25.52 -63.03 -25.92 -63.84 -25.92L-65.89 -25.92C-66.7 -25.92 -67.11 -25.52 -67.11 -24.71L-67.11 -20.47C-67.11 -13.93 -64.58 -8.72 -59.54 -4.84Z M64.32 -84.79C63.51 -84.79 63.11 -84.38 63.11 -83.57L63.11 -45.18C63.11 -44.86 62.95 -44.69 62.62 -44.69L18.66 -44.69C18.33 -44.69 18.17 -44.86 18.17 -45.18L18.17 -83.57C18.17 -84.38 17.77 -84.79 16.96 -84.79L14.66 -84.79C13.85 -84.79 13.45 -84.38 13.45 -83.57L13.45 -1.21C13.45 -0.4 13.85 0 14.66 0L16.96 0C17.77 0 18.17 -0.4 18.17 -1.21L18.17 -39.85C18.17 -40.17 18.33 -40.33 18.66 -40.33L62.62 -40.33C62.95 -40.33 63.11 -40.17 63.11 -39.85L63.11 -1.21C63.11 -0.4 63.51 0 64.32 0L66.62 0C67.43 0 67.83 -0.4 67.83 -1.21L67.83 -83.57C67.83 -84.38 67.43 -84.79 66.62 -84.79Z M148.14 -0.85C148.39 -0.28 148.87 0 149.6 0L151.78 0C152.42 0 152.75 -0.28 152.75 -0.85C152.75 -1.09 152.71 -1.29 152.63 -1.45L133.73 -40.45C133.57 -40.7 133.69 -40.9 134.09 -41.06C139.5 -41.95 143.8 -44.33 146.99 -48.21C150.18 -52.08 151.78 -56.89 151.78 -62.62C151.78 -69.32 149.74 -74.73 145.66 -78.85C141.58 -82.97 136.23 -85.03 129.61 -85.03L99.94 -85.03C99.13 -85.03 98.73 -84.62 98.73 -83.82L98.73 -1.21C98.73 -0.4 99.13 0 99.94 0L102.24 0C103.05 0 103.45 -0.4 103.45 -1.21L103.45 -40.21C103.45 -40.54 103.61 -40.7 103.93 -40.7L128.52 -40.7C128.76 -40.7 128.93 -40.58 129.01 -40.33ZM103.45 -80.18C103.45 -80.51 103.61 -80.67 103.93 -80.67L129.49 -80.67C134.74 -80.67 138.98 -79.01 142.21 -75.7C145.44 -72.39 147.05 -68.03 147.05 -62.62C147.05 -57.37 145.44 -53.09 142.21 -49.78C138.98 -46.47 134.74 -44.82 129.49 -44.82L103.93 -44.82C103.61 -44.82 103.45 -44.98 103.45 -45.3Z M230.27 -0.97C230.52 -0.32 231 0 231.73 0L234.15 0C234.88 0 235.24 -0.28 235.24 -0.85L235.12 -1.33L207.87 -83.82C207.62 -84.46 207.14 -84.79 206.41 -84.79L203.26 -84.79C202.54 -84.79 202.05 -84.46 201.81 -83.82L174.8 -1.33C174.56 -0.44 174.88 0 175.77 0L178.07 0C178.8 0 179.28 -0.32 179.52 -0.97L184.85 -17.68C184.93 -17.93 185.09 -18.05 185.34 -18.05L224.34 -18.05C224.58 -18.05 224.74 -17.93 224.82 -17.68ZM186.49 -22.23C186.37 -22.35 186.35 -22.49 186.43 -22.65L204.47 -78.12C204.56 -78.29 204.68 -78.37 204.84 -78.37C205 -78.37 205.12 -78.29 205.2 -78.12L223.37 -22.65C223.45 -22.49 223.43 -22.35 223.31 -22.23C223.19 -22.1 223.05 -22.04 222.88 -22.04L186.91 -22.04C186.75 -22.04 186.61 -22.1 186.49 -22.23Z"></path></g><g id="SvgjsG58007" class="text" transform="translate(272.633068043531, 197.354892156716) scale(1)" light-content="false" fill="#ffffff"><path d="M-229.47 0L-225.55 0L-225.55 -12.88L-214.04 -12.88L-214.04 -16.19L-225.55 -16.19L-225.55 -24.63L-212.59 -24.63L-212.59 -27.98L-229.47 -27.98Z M-192.32 -0.61L-192.32 -20.99L-196.08 -20.99L-196.08 -3.27C-196.21 -3.22 -196.43 -3.17 -196.74 -3.13C-197.05 -3.09 -197.4 -3.05 -197.77 -3.01C-198.15 -2.97 -198.55 -2.93 -198.98 -2.91C-199.41 -2.88 -199.83 -2.87 -200.23 -2.87C-202.15 -2.87 -203.51 -3.42 -204.31 -4.52C-205.12 -5.63 -205.52 -7.46 -205.52 -10.01L-205.52 -20.99L-209.28 -20.99L-209.28 -9.21C-209.28 -7.78 -209.13 -6.48 -208.83 -5.31C-208.54 -4.14 -208.05 -3.12 -207.38 -2.26C-206.71 -1.4 -205.82 -0.73 -204.72 -0.26C-203.61 0.21 -202.25 0.44 -200.64 0.44C-198.78 0.44 -197.15 0.32 -195.73 0.08C-194.32 -0.16 -193.18 -0.39 -192.32 -0.61Z M-179.56 0.4L-179.04 -2.75C-179.63 -2.83 -180.13 -2.93 -180.53 -3.05C-180.94 -3.17 -181.26 -3.35 -181.5 -3.59C-181.74 -3.84 -181.92 -4.16 -182.03 -4.56C-182.13 -4.97 -182.19 -5.48 -182.19 -6.1L-182.19 -31.33L-185.94 -30.68L-185.94 -5.49C-185.94 -3.5 -185.46 -2.03 -184.49 -1.09C-183.52 -0.15 -181.88 0.35 -179.56 0.4Z M-168.54 0.4L-168.02 -2.75C-168.61 -2.83 -169.11 -2.93 -169.51 -3.05C-169.91 -3.17 -170.24 -3.35 -170.48 -3.59C-170.72 -3.84 -170.9 -4.16 -171 -4.56C-171.11 -4.97 -171.17 -5.48 -171.17 -6.1L-171.17 -31.33L-174.92 -30.68L-174.92 -5.49C-174.92 -3.5 -174.44 -2.03 -173.47 -1.09C-172.5 -0.15 -170.86 0.35 -168.54 0.4Z M-147.75 -2.79C-149.58 -2.79 -151.13 -3 -152.39 -3.43C-153.66 -3.86 -154.6 -4.25 -155.22 -4.6L-156.39 -1.37C-156.09 -1.21 -155.68 -1.02 -155.16 -0.79C-154.63 -0.56 -154.01 -0.34 -153.28 -0.14C-152.55 0.06 -151.73 0.24 -150.8 0.38C-149.87 0.53 -148.85 0.61 -147.75 0.61C-144.49 0.61 -141.97 -0.05 -140.18 -1.37C-138.39 -2.69 -137.49 -4.58 -137.49 -7.03C-137.49 -8.34 -137.7 -9.47 -138.1 -10.4C-138.5 -11.32 -139.08 -12.13 -139.82 -12.8C-140.56 -13.47 -141.43 -14.05 -142.44 -14.53C-143.45 -15.02 -144.56 -15.5 -145.77 -15.99C-146.63 -16.31 -147.42 -16.63 -148.13 -16.96C-148.85 -17.28 -149.47 -17.64 -150.01 -18.03C-150.55 -18.42 -150.97 -18.87 -151.26 -19.38C-151.56 -19.89 -151.71 -20.52 -151.71 -21.28C-151.71 -21.95 -151.56 -22.54 -151.28 -23.03C-151 -23.53 -150.62 -23.94 -150.13 -24.26C-149.65 -24.59 -149.08 -24.83 -148.44 -24.99C-147.79 -25.15 -147.09 -25.23 -146.34 -25.23C-144.86 -25.23 -143.56 -25.07 -142.44 -24.73C-141.32 -24.39 -140.48 -24.05 -139.92 -23.7L-138.66 -26.89C-139.31 -27.32 -140.33 -27.72 -141.71 -28.08C-143.1 -28.44 -144.64 -28.63 -146.34 -28.63C-149.27 -28.63 -151.57 -27.94 -153.24 -26.57C-154.91 -25.19 -155.74 -23.28 -155.74 -20.83C-155.74 -19.65 -155.55 -18.64 -155.16 -17.8C-154.77 -16.97 -154.24 -16.25 -153.56 -15.64C-152.89 -15.04 -152.1 -14.51 -151.18 -14.07C-150.27 -13.63 -149.3 -13.23 -148.27 -12.88C-147.39 -12.56 -146.54 -12.23 -145.75 -11.91C-144.96 -11.59 -144.25 -11.2 -143.63 -10.76C-143.01 -10.32 -142.52 -9.79 -142.16 -9.19C-141.79 -8.58 -141.61 -7.85 -141.61 -6.98C-141.61 -4.19 -143.66 -2.79 -147.75 -2.79Z M-129.5 -20.99L-129.5 -27.49L-133.25 -26.85L-133.25 -8.12C-133.25 -6.72 -133.14 -5.48 -132.91 -4.42C-132.68 -3.36 -132.29 -2.46 -131.72 -1.74C-131.16 -1.01 -130.41 -0.46 -129.48 -0.1C-128.55 0.26 -127.37 0.44 -125.95 0.44C-124.74 0.44 -123.66 0.3 -122.72 0.02C-121.77 -0.26 -121.12 -0.5 -120.74 -0.69L-121.47 -3.8C-121.73 -3.69 -122.21 -3.51 -122.9 -3.25C-123.58 -2.99 -124.49 -2.87 -125.62 -2.87C-126.27 -2.87 -126.84 -2.95 -127.32 -3.11C-127.8 -3.27 -128.21 -3.55 -128.53 -3.94C-128.85 -4.33 -129.1 -4.87 -129.26 -5.55C-129.42 -6.24 -129.5 -7.11 -129.5 -8.16L-129.5 -17.85L-121.55 -17.85L-121.55 -20.99Z M-109.68 -2.71C-111.16 -2.71 -112.33 -2.97 -113.19 -3.49C-114.05 -4.02 -114.48 -4.95 -114.48 -6.3C-114.48 -7.03 -114.31 -7.61 -113.96 -8.05C-113.61 -8.5 -113.17 -8.85 -112.64 -9.1C-112.12 -9.36 -111.54 -9.53 -110.91 -9.61C-110.27 -9.69 -109.68 -9.73 -109.11 -9.73C-108.25 -9.73 -107.52 -9.68 -106.91 -9.59C-106.3 -9.49 -105.87 -9.38 -105.6 -9.25L-105.6 -2.99C-106.06 -2.88 -106.63 -2.81 -107.31 -2.77C-108 -2.73 -108.79 -2.71 -109.68 -2.71ZM-110 -21.52C-111.32 -21.52 -112.54 -21.42 -113.67 -21.22C-114.8 -21.01 -115.61 -20.81 -116.1 -20.59L-115.65 -17.48C-115.19 -17.67 -114.5 -17.85 -113.57 -18.03C-112.64 -18.2 -111.56 -18.29 -110.32 -18.29C-109.35 -18.29 -108.57 -18.15 -107.96 -17.87C-107.35 -17.58 -106.88 -17.21 -106.53 -16.74C-106.18 -16.26 -105.93 -15.73 -105.8 -15.12C-105.67 -14.51 -105.6 -13.9 -105.6 -13.28L-105.6 -12.23C-105.71 -12.26 -105.89 -12.3 -106.16 -12.35C-106.43 -12.41 -106.75 -12.47 -107.11 -12.54C-107.48 -12.6 -107.86 -12.66 -108.26 -12.7C-108.67 -12.74 -109.06 -12.76 -109.43 -12.76C-110.62 -12.76 -111.75 -12.64 -112.83 -12.39C-113.9 -12.15 -114.84 -11.78 -115.65 -11.26C-116.46 -10.75 -117.1 -10.08 -117.57 -9.25C-118.04 -8.41 -118.28 -7.42 -118.28 -6.26C-118.28 -5.05 -118.07 -4.01 -117.67 -3.15C-117.27 -2.29 -116.7 -1.59 -115.97 -1.07C-115.25 -0.55 -114.39 -0.16 -113.39 0.08C-112.39 0.32 -111.3 0.44 -110.12 0.44C-109.29 0.44 -108.44 0.41 -107.6 0.34C-106.75 0.28 -105.96 0.2 -105.23 0.12C-104.51 0.04 -103.86 -0.05 -103.28 -0.14C-102.7 -0.24 -102.25 -0.31 -101.92 -0.36L-101.92 -13.48C-101.92 -14.67 -102.06 -15.75 -102.33 -16.74C-102.6 -17.72 -103.05 -18.57 -103.68 -19.28C-104.31 -19.99 -105.15 -20.54 -106.18 -20.93C-107.22 -21.32 -108.49 -21.52 -110 -21.52Z M-86.58 0.48C-86.04 0.48 -85.49 0.45 -84.91 0.38C-84.33 0.32 -83.78 0.24 -83.27 0.14C-82.76 0.05 -82.3 -0.06 -81.9 -0.18C-81.49 -0.3 -81.19 -0.43 -80.97 -0.57L-81.49 -3.71C-81.95 -3.5 -82.59 -3.3 -83.39 -3.11C-84.2 -2.92 -85.1 -2.83 -86.1 -2.83C-87.34 -2.83 -88.39 -3.01 -89.25 -3.37C-90.11 -3.73 -90.81 -4.25 -91.37 -4.93C-91.92 -5.6 -92.32 -6.41 -92.58 -7.35C-92.83 -8.29 -92.96 -9.33 -92.96 -10.46C-92.96 -12.99 -92.4 -14.91 -91.29 -16.23C-90.17 -17.55 -88.56 -18.21 -86.46 -18.21C-85.63 -18.21 -84.84 -18.13 -84.1 -17.97C-83.36 -17.8 -82.71 -17.59 -82.14 -17.32L-81.29 -20.51C-82.15 -20.86 -83.06 -21.12 -84 -21.28C-84.94 -21.44 -85.88 -21.52 -86.82 -21.52C-88.36 -21.52 -89.75 -21.24 -91 -20.69C-92.25 -20.14 -93.31 -19.37 -94.17 -18.39C-95.03 -17.41 -95.7 -16.24 -96.17 -14.9C-96.64 -13.55 -96.88 -12.07 -96.88 -10.46C-96.88 -8.84 -96.66 -7.37 -96.23 -6.04C-95.8 -4.7 -95.15 -3.55 -94.27 -2.58C-93.4 -1.61 -92.32 -0.86 -91.04 -0.32C-89.76 0.22 -88.28 0.48 -86.58 0.48Z M-69.34 -11.55C-68.64 -12.27 -67.9 -13.05 -67.1 -13.87C-66.31 -14.69 -65.52 -15.51 -64.74 -16.33C-63.96 -17.15 -63.21 -17.97 -62.48 -18.77C-61.75 -19.58 -61.08 -20.32 -60.46 -20.99L-64.86 -20.99C-65.35 -20.43 -65.92 -19.78 -66.6 -19.04C-67.27 -18.3 -67.98 -17.52 -68.74 -16.71C-69.49 -15.91 -70.26 -15.11 -71.04 -14.33L-73.18 -12.19L-73.18 -31.33L-76.93 -30.68L-76.93 0L-73.18 0L-73.18 -10.09C-72.42 -9.58 -71.63 -8.95 -70.8 -8.2C-69.96 -7.44 -69.14 -6.61 -68.33 -5.71C-67.53 -4.81 -66.75 -3.87 -66.01 -2.89C-65.27 -1.9 -64.62 -0.94 -64.05 0L-59.65 0C-60.19 -0.94 -60.85 -1.96 -61.63 -3.05C-62.41 -4.14 -63.24 -5.21 -64.11 -6.28C-64.99 -7.34 -65.88 -8.33 -66.78 -9.25C-67.68 -10.16 -68.53 -10.93 -69.34 -11.55Z M-30.99 -18.98C-29.86 -15.37 -28.73 -12.03 -27.6 -8.96C-26.47 -5.89 -25.31 -2.91 -24.12 0L-20.21 0C-18.81 -4.12 -17.56 -8.47 -16.47 -13.04C-15.38 -17.62 -14.35 -22.6 -13.38 -27.98L-17.38 -27.98C-17.76 -25.88 -18.15 -23.77 -18.55 -21.66C-18.96 -19.55 -19.37 -17.5 -19.78 -15.52C-20.2 -13.55 -20.62 -11.65 -21.06 -9.85C-21.49 -8.05 -21.92 -6.39 -22.35 -4.89C-23.42 -7.71 -24.58 -10.81 -25.82 -14.19C-27.06 -17.57 -28.2 -21.06 -29.25 -24.67L-32.64 -24.67C-33.69 -21.06 -34.82 -17.57 -36.03 -14.19C-37.25 -10.81 -38.39 -7.71 -39.47 -4.89C-39.92 -6.42 -40.37 -8.09 -40.8 -9.89C-41.23 -11.7 -41.66 -13.59 -42.09 -15.56C-42.52 -17.54 -42.94 -19.58 -43.34 -21.68C-43.75 -23.78 -44.14 -25.88 -44.51 -27.98L-48.63 -27.98C-47.69 -22.6 -46.67 -17.62 -45.58 -13.04C-44.49 -8.47 -43.23 -4.12 -41.81 0L-37.89 0C-36.73 -2.91 -35.58 -5.89 -34.42 -8.96C-33.26 -12.03 -32.12 -15.37 -30.99 -18.98Z M-11.08 -10.46C-11.08 -8.87 -10.87 -7.41 -10.46 -6.08C-10.04 -4.74 -9.4 -3.59 -8.54 -2.62C-7.68 -1.66 -6.58 -0.89 -5.25 -0.34C-3.92 0.21 -2.33 0.48 -0.5 0.48C0.95 0.48 2.25 0.35 3.39 0.08C4.54 -0.19 5.34 -0.44 5.79 -0.69L5.27 -3.84C4.81 -3.62 4.13 -3.4 3.23 -3.17C2.33 -2.94 1.22 -2.83 -0.1 -2.83C-2.44 -2.83 -4.17 -3.39 -5.27 -4.52C-6.37 -5.65 -7 -7.31 -7.17 -9.49L7.21 -9.49C7.23 -9.7 7.25 -9.94 7.25 -10.19L7.25 -10.82C7.25 -14.43 6.49 -17.11 4.99 -18.87C3.48 -20.64 1.31 -21.52 -1.51 -21.52C-2.73 -21.52 -3.91 -21.29 -5.07 -20.83C-6.22 -20.38 -7.25 -19.69 -8.14 -18.77C-9.02 -17.86 -9.74 -16.71 -10.28 -15.32C-10.81 -13.94 -11.08 -12.31 -11.08 -10.46ZM3.33 -12.52L-7.09 -12.52C-7 -13.24 -6.84 -13.96 -6.58 -14.66C-6.33 -15.36 -5.97 -15.97 -5.51 -16.51C-5.05 -17.05 -4.49 -17.49 -3.84 -17.83C-3.18 -18.16 -2.42 -18.33 -1.55 -18.33C-0.02 -18.33 1.18 -17.78 2.06 -16.69C2.93 -15.6 3.36 -14.21 3.33 -12.52Z M16.41 -20.07L16.41 -31.33L12.66 -30.68L12.66 -0.61C13.52 -0.36 14.62 -0.12 15.97 0.12C17.31 0.36 18.86 0.48 20.61 0.48C22.23 0.48 23.68 0.23 24.97 -0.28C26.26 -0.79 27.37 -1.52 28.28 -2.46C29.2 -3.4 29.9 -4.56 30.4 -5.91C30.9 -7.27 31.15 -8.8 31.15 -10.5C31.15 -12.11 30.94 -13.59 30.52 -14.94C30.11 -16.28 29.49 -17.44 28.69 -18.41C27.88 -19.38 26.89 -20.13 25.72 -20.67C24.55 -21.21 23.21 -21.48 21.7 -21.48C20.49 -21.48 19.42 -21.32 18.49 -20.99C17.56 -20.67 16.87 -20.36 16.41 -20.07ZM16.41 -3.27L16.41 -16.55C16.87 -16.93 17.53 -17.29 18.39 -17.64C19.25 -17.99 20.19 -18.17 21.22 -18.17C22.29 -18.17 23.22 -17.97 23.98 -17.58C24.75 -17.19 25.38 -16.65 25.86 -15.97C26.34 -15.28 26.69 -14.47 26.91 -13.53C27.12 -12.58 27.23 -11.57 27.23 -10.5C27.23 -8.05 26.63 -6.16 25.42 -4.82C24.2 -3.49 22.59 -2.83 20.57 -2.83C19.55 -2.83 18.69 -2.87 18.01 -2.97C17.32 -3.06 16.79 -3.16 16.41 -3.27Z M68.98 -14.01C68.98 -16.43 68.6 -18.54 67.85 -20.33C67.09 -22.12 66.03 -23.6 64.66 -24.77C63.29 -25.94 61.64 -26.82 59.73 -27.39C57.82 -27.97 55.72 -28.26 53.44 -28.26C52.3 -28.26 51.06 -28.21 49.7 -28.12C48.34 -28.03 47.11 -27.84 46.01 -27.58L46.01 -0.44C47.11 -0.17 48.34 0.01 49.7 0.1C51.06 0.2 52.3 0.24 53.44 0.24C55.72 0.24 57.82 -0.05 59.73 -0.63C61.64 -1.2 63.29 -2.08 64.66 -3.25C66.03 -4.42 67.09 -5.9 67.85 -7.69C68.6 -9.48 68.98 -11.59 68.98 -14.01ZM53.76 -3.19C52.65 -3.19 51.8 -3.2 51.19 -3.23C50.59 -3.26 50.16 -3.28 49.92 -3.31L49.92 -24.71C50.16 -24.74 50.59 -24.76 51.19 -24.79C51.8 -24.82 52.65 -24.83 53.76 -24.83C57.47 -24.83 60.24 -23.88 62.08 -21.98C63.91 -20.09 64.82 -17.43 64.82 -14.01C64.82 -10.59 63.91 -7.93 62.08 -6.04C60.24 -4.14 57.47 -3.19 53.76 -3.19Z M73.38 -10.46C73.38 -8.87 73.59 -7.41 74.01 -6.08C74.42 -4.74 75.06 -3.59 75.92 -2.62C76.78 -1.66 77.88 -0.89 79.21 -0.34C80.55 0.21 82.13 0.48 83.96 0.48C85.41 0.48 86.71 0.35 87.85 0.08C89 -0.19 89.8 -0.44 90.26 -0.69L89.73 -3.84C89.27 -3.62 88.59 -3.4 87.69 -3.17C86.79 -2.94 85.68 -2.83 84.36 -2.83C82.02 -2.83 80.3 -3.39 79.19 -4.52C78.09 -5.65 77.46 -7.31 77.3 -9.49L91.67 -9.49C91.7 -9.7 91.71 -9.94 91.71 -10.19L91.71 -10.82C91.71 -14.43 90.96 -17.11 89.45 -18.87C87.94 -20.64 85.77 -21.52 82.95 -21.52C81.74 -21.52 80.55 -21.29 79.4 -20.83C78.24 -20.38 77.22 -19.69 76.33 -18.77C75.44 -17.86 74.73 -16.71 74.19 -15.32C73.65 -13.94 73.38 -12.31 73.38 -10.46ZM87.79 -12.52L77.38 -12.52C77.46 -13.24 77.63 -13.96 77.88 -14.66C78.14 -15.36 78.49 -15.97 78.95 -16.51C79.41 -17.05 79.97 -17.49 80.63 -17.83C81.29 -18.16 82.05 -18.33 82.91 -18.33C84.44 -18.33 85.65 -17.78 86.52 -16.69C87.4 -15.6 87.82 -14.21 87.79 -12.52Z M113.51 -20.99L109.64 -20.99C109.31 -19.68 108.93 -18.27 108.49 -16.78C108.04 -15.28 107.57 -13.8 107.07 -12.33C106.57 -10.87 106.07 -9.45 105.56 -8.07C105.05 -6.7 104.56 -5.48 104.1 -4.4C103.65 -5.48 103.16 -6.7 102.65 -8.07C102.14 -9.45 101.63 -10.87 101.14 -12.33C100.64 -13.8 100.17 -15.28 99.72 -16.78C99.28 -18.27 98.9 -19.68 98.57 -20.99L94.54 -20.99C95.59 -17.06 96.82 -13.3 98.23 -9.69C99.64 -6.08 101.01 -2.85 102.33 0L105.72 0C107.04 -2.85 108.4 -6.08 109.82 -9.69C111.23 -13.3 112.46 -17.06 113.51 -20.99Z M115.65 -10.46C115.65 -8.87 115.86 -7.41 116.28 -6.08C116.69 -4.74 117.33 -3.59 118.19 -2.62C119.06 -1.66 120.15 -0.89 121.49 -0.34C122.82 0.21 124.4 0.48 126.23 0.48C127.68 0.48 128.98 0.35 130.13 0.08C131.27 -0.19 132.07 -0.44 132.53 -0.69L132 -3.84C131.55 -3.62 130.87 -3.4 129.96 -3.17C129.06 -2.94 127.95 -2.83 126.63 -2.83C124.29 -2.83 122.57 -3.39 121.47 -4.52C120.36 -5.65 119.73 -7.31 119.57 -9.49L133.94 -9.49C133.97 -9.7 133.98 -9.94 133.98 -10.19L133.98 -10.82C133.98 -14.43 133.23 -17.11 131.72 -18.87C130.21 -20.64 128.05 -21.52 125.22 -21.52C124.01 -21.52 122.82 -21.29 121.67 -20.83C120.51 -20.38 119.49 -19.69 118.6 -18.77C117.71 -17.86 117 -16.71 116.46 -15.32C115.92 -13.94 115.65 -12.31 115.65 -10.46ZM130.06 -12.52L119.65 -12.52C119.73 -13.24 119.9 -13.96 120.15 -14.66C120.41 -15.36 120.77 -15.97 121.22 -16.51C121.68 -17.05 122.24 -17.49 122.9 -17.83C123.56 -18.16 124.32 -18.33 125.18 -18.33C126.71 -18.33 127.92 -17.78 128.79 -16.69C129.67 -15.6 130.09 -14.21 130.06 -12.52Z M145.69 0.4L146.21 -2.75C145.62 -2.83 145.12 -2.93 144.72 -3.05C144.32 -3.17 143.99 -3.35 143.75 -3.59C143.51 -3.84 143.33 -4.16 143.23 -4.56C143.12 -4.97 143.07 -5.48 143.07 -6.1L143.07 -31.33L139.31 -30.68L139.31 -5.49C139.31 -3.5 139.8 -2.03 140.76 -1.09C141.73 -0.15 143.37 0.35 145.69 0.4Z M168.95 -10.5C168.95 -12.14 168.7 -13.64 168.22 -15C167.73 -16.36 167.05 -17.52 166.18 -18.49C165.3 -19.46 164.26 -20.21 163.05 -20.73C161.84 -21.26 160.52 -21.52 159.09 -21.52C157.67 -21.52 156.35 -21.26 155.14 -20.73C153.93 -20.21 152.88 -19.46 152.01 -18.49C151.13 -17.52 150.45 -16.36 149.97 -15C149.48 -13.64 149.24 -12.14 149.24 -10.5C149.24 -8.83 149.48 -7.32 149.97 -5.98C150.45 -4.63 151.13 -3.47 152.01 -2.5C152.88 -1.53 153.93 -0.79 155.14 -0.26C156.35 0.26 157.67 0.52 159.09 0.52C160.52 0.52 161.84 0.26 163.05 -0.26C164.26 -0.79 165.3 -1.53 166.18 -2.5C167.05 -3.47 167.73 -4.63 168.22 -5.98C168.7 -7.32 168.95 -8.83 168.95 -10.5ZM165.03 -10.5C165.03 -8.13 164.5 -6.25 163.43 -4.87C162.37 -3.48 160.92 -2.79 159.09 -2.79C157.26 -2.79 155.82 -3.48 154.75 -4.87C153.69 -6.25 153.16 -8.13 153.16 -10.5C153.16 -12.87 153.69 -14.74 154.75 -16.13C155.82 -17.52 157.26 -18.21 159.09 -18.21C160.92 -18.21 162.37 -17.52 163.43 -16.13C164.5 -14.74 165.03 -12.87 165.03 -10.5Z M188.81 -10.46C188.81 -9.38 188.7 -8.38 188.49 -7.45C188.27 -6.52 187.92 -5.71 187.44 -5.03C186.95 -4.34 186.33 -3.8 185.56 -3.41C184.79 -3.02 183.87 -2.83 182.79 -2.83C181.77 -2.83 180.83 -3 179.97 -3.35C179.11 -3.7 178.45 -4.06 177.99 -4.44L177.99 -17.68C178.37 -17.79 178.87 -17.89 179.5 -17.97C180.14 -18.05 181.02 -18.09 182.15 -18.09C184.17 -18.09 185.78 -17.43 186.99 -16.11C188.2 -14.79 188.81 -12.91 188.81 -10.46ZM192.73 -10.46C192.73 -12.15 192.48 -13.68 191.98 -15.04C191.48 -16.4 190.77 -17.55 189.86 -18.49C188.94 -19.43 187.84 -20.16 186.55 -20.67C185.26 -21.18 183.8 -21.44 182.19 -21.44C180.44 -21.44 178.9 -21.31 177.56 -21.06C176.23 -20.8 175.12 -20.56 174.23 -20.35L174.23 7.47L177.99 7.47L177.99 -0.93C178.45 -0.63 179.14 -0.32 180.07 0C181 0.32 182.07 0.48 183.28 0.48C184.79 0.48 186.12 0.22 187.3 -0.32C188.47 -0.86 189.46 -1.61 190.26 -2.58C191.07 -3.55 191.68 -4.71 192.1 -6.06C192.52 -7.4 192.73 -8.87 192.73 -10.46Z M196.84 -10.46C196.84 -8.87 197.05 -7.41 197.47 -6.08C197.89 -4.74 198.53 -3.59 199.39 -2.62C200.25 -1.66 201.35 -0.89 202.68 -0.34C204.01 0.21 205.59 0.48 207.42 0.48C208.88 0.48 210.17 0.35 211.32 0.08C212.46 -0.19 213.26 -0.44 213.72 -0.69L213.2 -3.84C212.74 -3.62 212.06 -3.4 211.16 -3.17C210.25 -2.94 209.14 -2.83 207.83 -2.83C205.48 -2.83 203.76 -3.39 202.66 -4.52C201.55 -5.65 200.92 -7.31 200.76 -9.49L215.13 -9.49C215.16 -9.7 215.17 -9.94 215.17 -10.19L215.17 -10.82C215.17 -14.43 214.42 -17.11 212.91 -18.87C211.41 -20.64 209.24 -21.52 206.41 -21.52C205.2 -21.52 204.02 -21.29 202.86 -20.83C201.7 -20.38 200.68 -19.69 199.79 -18.77C198.9 -17.86 198.19 -16.71 197.65 -15.32C197.11 -13.94 196.84 -12.31 196.84 -10.46ZM211.26 -12.52L200.84 -12.52C200.92 -13.24 201.09 -13.96 201.35 -14.66C201.6 -15.36 201.96 -15.97 202.42 -16.51C202.87 -17.05 203.43 -17.49 204.09 -17.83C204.75 -18.16 205.51 -18.33 206.37 -18.33C207.91 -18.33 209.11 -17.78 209.99 -16.69C210.86 -15.6 211.28 -14.21 211.26 -12.52Z M228.34 -21.44C226.69 -21.44 225.21 -21.3 223.89 -21.01C222.58 -20.73 221.47 -20.43 220.58 -20.11L220.58 0L224.34 0L224.34 -17.64C224.55 -17.7 225 -17.8 225.69 -17.95C226.38 -18.09 227.07 -18.17 227.77 -18.17C228.85 -18.17 229.73 -18.09 230.41 -17.95C231.1 -17.8 231.59 -17.67 231.89 -17.56L232.53 -20.83C232.37 -20.89 232.12 -20.95 231.79 -21.01C231.45 -21.08 231.08 -21.15 230.68 -21.22C230.27 -21.28 229.86 -21.34 229.45 -21.38C229.03 -21.42 228.66 -21.44 228.34 -21.44Z"></path></g><g id="SvgjsG58011" class="-LWeJBwip" transform="translate(213.58946965511427, 205.71718668018593) scale(1.221021780468989)" light-content="false" non-strokable="false" fill="url(#SvgjsLinearGradientnGGHtzc61KS)"><path d="M88.406 9.826c3.995-1.437 9.531-2.341 11.257 2.671 1.521 4.347-3.097 13.503-4.511 17.66-1.938 5.695-3.944 11.463-6.667 16.838-2.541 4.665-8.027 4.479-12.773 3.834 2.238 1.056 5.379 1.964 7.119 3.842 2.373 2.263-1.899 1.188 1.818 3.312 1.365.78 2.907 1.943 4.011 3.085 2.324 2.406-.032 2.374-1.229 4.278-1.549 2.552 2.425 3.946 3.267 5.604 1.132 3.145-4.121.956-4.365 3.622-.559 4.73 1.752 6.606 5.486 9.151 2.233 1.522 7.175 3.635 8.05 6.423.985 3.141-3.854 4.646-5.528 2.234-2.456-3.536-7.743-14.905-13.245-7.511-.861 1.157-1.3 5.096-3.264 1.903-1.431-2.325-3.086-2.307-4.41.324-2.994 5.946-8.565-8.76-10.064-10.645-1.98-2.583-2.893-5.544-4.551-8.305-1.943-2.974-2.575-9.244-5.916-11.024-.971 4.744 3.327 24.369-1.833 26.809-2.893-1.827-2.096-8.4-2.039-11.207.101-5.025 1.247-11.17-.388-16.033-2.478 1.698-3.665 6.183-4.872 8.771-1.694 3.635-3.572 7.646-6.013 10.827-2.411 3.044-6.237 17.258-10.616 9.601-.878-1.536-2.771-.845-3.48.317-2.681 4.415-2.679-.459-4.55-2.011-7.668-6.36-9.583 7.883-14.02 9.514-2.271.875-5.139-1.879-3.418-4.031 2.329-2.594 5.668-4.22 8.47-6.232 2.296-1.649 5.208-4.143 4.722-7.322-.512-3.342-4.737-2.195-4.695-4.473.124-1.964 3.446-2.416 3.736-4.739.287-2.301-3.189-2.147-2.615-4.233 1.46-3.896 6.357-3.456 6.755-7.272 0-2.218 5.522-3.517 6.943-4.455-3.611.403-8.206 1-11.465-1.046-2.831-1.653-4.338-7.709-5.46-10.522a226.482 226.482 0 0 1-5.417-15.158c-1.206-3.787-4.724-10.775-.9-14.024C8.495 4.384 23.862 16.244 28.7 20.678c7.569 6.937 13.369 15.723 17.027 25.293 1.937-.968 1.914-8.272 4.958-7.518 2.033.712 2.999 4.693 4.114 6.253 5.894-15.323 17.979-29.137 33.607-34.88 2.034-.731-2.508.922 0 0z"></path></g></g></svg>